<svg width="21" height="21" viewBox="0 0 21 21" fill="none" xmlns="http://www.w3.org/2000/svg">
<path d="M10.6171 0.255999C10.4112 0.259158 10.2149 0.343928 10.0715 0.491682C9.92805 0.639437 9.84913 0.838091 9.85207 1.044V2.6C9.85207 2.70204 9.87216 2.80307 9.91121 2.89734C9.95026 2.99161 10.0075 3.07727 10.0796 3.14942C10.1518 3.22157 10.2375 3.27881 10.3317 3.31785C10.426 3.3569 10.527 3.377 10.6291 3.377C10.7311 3.377 10.8321 3.3569 10.9264 3.31785C11.0207 3.27881 11.1063 3.22157 11.1785 3.14942C11.2506 3.07727 11.3079 2.99161 11.3469 2.89734C11.386 2.80307 11.4061 2.70204 11.4061 2.6V1.044C11.4076 0.940022 11.3882 0.836806 11.349 0.740465C11.3099 0.644124 11.2518 0.556619 11.1782 0.483136C11.1046 0.409652 11.0171 0.351685 10.9207 0.312669C10.8243 0.273654 10.721 0.254382 10.6171 0.255999ZM3.84407 3.067C3.68949 3.06675 3.53835 3.11262 3.40998 3.19873C3.28161 3.28484 3.18184 3.40729 3.12343 3.55041C3.06502 3.69353 3.05063 3.85082 3.0821 4.00216C3.11356 4.1535 3.18945 4.29202 3.30007 4.4L4.40007 5.5C4.54699 5.64069 4.74317 5.71824 4.94658 5.71604C5.14998 5.71383 5.34444 5.63205 5.48828 5.48821C5.63212 5.34437 5.7139 5.14992 5.7161 4.94651C5.71831 4.7431 5.64076 4.54692 5.50007 4.4L4.40007 3.3C4.32759 3.22608 4.24106 3.16739 4.14558 3.12738C4.0501 3.08737 3.94759 3.06684 3.84407 3.067ZM17.3901 3.067C17.1883 3.07299 16.9968 3.15728 16.8561 3.302L15.7561 4.402C15.6154 4.54892 15.5378 4.7451 15.54 4.94851C15.5422 5.15192 15.624 5.34637 15.7679 5.49021C15.9117 5.63405 16.1061 5.71583 16.3096 5.71804C16.513 5.72024 16.7091 5.64269 16.8561 5.502L17.9561 4.402C18.0689 4.29286 18.146 4.15211 18.1772 3.99829C18.2085 3.84447 18.1924 3.68479 18.1312 3.54028C18.0699 3.39577 17.9663 3.2732 17.834 3.18872C17.7017 3.10424 17.5469 3.0618 17.3901 3.067ZM10.6291 4.93C9.50171 4.93 8.39968 5.2643 7.46232 5.89062C6.52496 6.51695 5.79437 7.40716 5.36295 8.4487C4.93153 9.49024 4.81866 10.6363 5.03859 11.742C5.25853 12.8477 5.8014 13.8633 6.59856 14.6605C7.39572 15.4577 8.41136 16.0005 9.51705 16.2205C10.6227 16.4404 11.7688 16.3275 12.8104 15.8961C13.8519 15.4647 14.7421 14.7341 15.3684 13.7968C15.9948 12.8594 16.3291 11.7574 16.3291 10.63C16.3292 9.88138 16.1819 9.14007 15.8955 8.4484C15.6091 7.75672 15.1892 7.12824 14.6599 6.59884C14.1306 6.06944 13.5022 5.6495 12.8106 5.36298C12.119 5.07647 11.3777 4.929 10.6291 4.929V4.93ZM1.04507 9.851C0.838994 9.851 0.64136 9.93286 0.495645 10.0786C0.349929 10.2243 0.268066 10.4219 0.268066 10.628C0.268066 10.8341 0.349929 11.0317 0.495645 11.1774C0.64136 11.3231 0.838994 11.405 1.04507 11.405H2.60007C2.80614 11.405 3.00377 11.3231 3.14949 11.1774C3.2952 11.0317 3.37707 10.8341 3.37707 10.628C3.37707 10.4219 3.2952 10.2243 3.14949 10.0786C3.00377 9.93286 2.80614 9.851 2.60007 9.851H1.04507ZM18.6591 9.851C18.453 9.851 18.2554 9.93286 18.1096 10.0786C17.9639 10.2243 17.8821 10.4219 17.8821 10.628C17.8821 10.8341 17.9639 11.0317 18.1096 11.1774C18.2554 11.3231 18.453 11.405 18.6591 11.405H20.2131C20.4191 11.405 20.6168 11.3231 20.7625 11.1774C20.9082 11.0317 20.9901 10.8341 20.9901 10.628C20.9901 10.4219 20.9082 10.2243 20.7625 10.0786C20.6168 9.93286 20.4191 9.851 20.2131 9.851H18.6591ZM4.93607 15.521C4.7343 15.527 4.54278 15.6113 4.40207 15.756L3.30207 16.856C3.22725 16.9276 3.1675 17.0135 3.1263 17.1086C3.08511 17.2036 3.06332 17.3059 3.0622 17.4095C3.06107 17.5131 3.08065 17.6158 3.11977 17.7117C3.15889 17.8077 3.21677 17.8948 3.29002 17.968C3.36327 18.0413 3.45041 18.0992 3.54632 18.1383C3.64223 18.1774 3.745 18.197 3.84858 18.1959C3.95216 18.1947 4.05447 18.173 4.14952 18.1318C4.24456 18.0906 4.33042 18.0308 4.40207 17.956L5.50207 16.856C5.61488 16.7469 5.69199 16.6061 5.72324 16.4523C5.75449 16.2985 5.73843 16.1388 5.67716 15.9943C5.61589 15.8498 5.51229 15.7272 5.38 15.6427C5.24772 15.5582 5.09294 15.5158 4.93607 15.521ZM16.2991 15.521C16.1443 15.5209 15.9931 15.5671 15.8647 15.6535C15.7364 15.74 15.6368 15.8628 15.5787 16.0062C15.5205 16.1496 15.5066 16.3071 15.5385 16.4585C15.5705 16.6099 15.6469 16.7483 15.7581 16.856L16.8581 17.956C16.9297 18.0308 17.0156 18.0906 17.1106 18.1318C17.2057 18.173 17.308 18.1947 17.4116 18.1959C17.5151 18.197 17.6179 18.1774 17.7138 18.1383C17.8097 18.0992 17.8969 18.0413 17.9701 17.968C18.0434 17.8948 18.1012 17.8077 18.1404 17.7117C18.1795 17.6158 18.1991 17.5131 18.1979 17.4095C18.1968 17.3059 18.175 17.2036 18.1338 17.1086C18.0926 17.0135 18.0329 16.9276 17.9581 16.856L16.8581 15.756C16.7855 15.6815 16.6987 15.6223 16.6029 15.5819C16.507 15.5415 16.4041 15.5208 16.3001 15.521H16.2991ZM10.6171 17.87C10.4112 17.8732 10.2149 17.9579 10.0715 18.1057C9.92805 18.2534 9.84913 18.4521 9.85207 18.658V20.212C9.85207 20.314 9.87216 20.4151 9.91121 20.5093C9.95026 20.6036 10.0075 20.6893 10.0796 20.7614C10.1518 20.8336 10.2375 20.8908 10.3317 20.9299C10.426 20.9689 10.527 20.989 10.6291 20.989C10.7311 20.989 10.8321 20.9689 10.9264 20.9299C11.0207 20.8908 11.1063 20.8336 11.1785 20.7614C11.2506 20.6893 11.3079 20.6036 11.3469 20.5093C11.386 20.4151 11.4061 20.314 11.4061 20.212V18.658C11.4076 18.554 11.3882 18.4508 11.349 18.3545C11.3099 18.2581 11.2518 18.1706 11.1782 18.0971C11.1046 18.0237 11.0171 17.9657 10.9207 17.9267C10.8243 17.8877 10.721 17.8684 10.6171 17.87Z" fill="#7688AA"/>
</svg>
